PathFileType	4	(X/Y/Z)	stereocamera_static.trc
DataRate	CameraRate	NumFrames	NumMarkers	Units	OrigDataRate	OrigDataStartFrame	OrigNumFrames
28.086763070077865	28.086763070077865	22	15	mm	28.086763070077865	127	203
Frame#	Time	JOINT_NECK			JOINT_RIGHT_CLAVICLE			JOINT_LEFT_CLAVICLE			JOINT_RIGHT_SHOULDER			JOINT_LEFT_SHOULDER			JOINT_RIGHT_ELBOW			JOINT_LEFT_ELBOW			JOINT_LEFT_WRIST			JOINT_RIGHT_WRIST			JOINT_SPINE_3			JOINT_SPINE_2			JOINT_SPINE_1			JOINT_PELVIS			JOINT_RIGHT_HIP			JOINT_LEFT_HIP
		X1	Y1	Z1	X2	Y2	Z2	X3	Y3	Z3	X4	Y4	Z4	X5	Y5	Z5	X6	Y6	Z6	X7	Y7	Z7	X8	Y8	Z8	X9	Y9	Z9	X10	Y10	Z10	X11	Y11	Z11	X12	Y12	Z12	X13	Y13	Z13	X14	Y14	Z14	X15	Y15	Z15

127	1749651038.400000	162.248700	5.209580	871.961900	100.692170	0.778764	958.189900	238.019330	10.122463	895.478300	25.577866	-4.100978	990.360560	301.392500	14.049694	870.835660	-29.444052	-260.885240	1032.425500	351.844460	-217.658160	822.809600	nan	nan	nan	-65.552640	-394.579830	999.440250	158.783960	-84.343040	853.284360	152.835090	-163.061100	821.368000	150.815040	-245.937100	810.501460	146.870090	-322.309230	789.282860	59.838597	-334.131500	815.788200	238.582450	-320.661700	795.865100
128	1749651038.433000	164.821910	5.367950	890.394750	101.597150	0.765234	957.968530	239.535780	10.102779	894.890670	26.547369	-4.656121	984.273500	301.594970	13.600677	870.520830	-29.030384	-258.135680	1032.678800	351.718040	-218.762950	821.809300	nan	nan	nan	-66.440220	-395.706180	1006.845000	158.754690	-84.343690	853.112000	152.839210	-163.076550	821.396300	150.821360	-245.960470	810.539400	147.008400	-320.499700	790.226760	nan	nan	nan	nan	nan	nan
129	1749651038.467000	167.140630	5.573660	904.182800	102.315456	0.859380	957.749660	238.270820	10.202050	895.510440	25.654592	-4.692316	985.136000	301.805320	13.980299	870.064200	-29.208688	-258.567270	1030.723000	351.343840	-218.657030	821.775300	nan	nan	nan	-67.277450	-400.900070	1019.190500	158.719390	-84.243120	852.944550	152.855160	-163.008240	821.503200	150.835570	-245.893800	810.613630	147.117330	-319.239020	790.830250	nan	nan	nan	nan	nan	nan
130	1749651038.500000	168.865430	5.655199	912.445200	100.176610	0.882074	958.580550	237.435400	10.217234	895.945100	24.759632	-4.646152	985.465700	301.529300	13.832584	870.936600	-29.019386	-258.292850	1031.198500	351.017330	-218.491970	821.671840	nan	nan	nan	-66.251070	-396.475430	1013.145200	158.704410	-84.220320	852.860030	152.861070	-163.000730	821.536700	150.839430	-245.896900	810.673100	147.021310	-320.370400	790.118460	nan	nan	nan	nan	nan	nan
131	1749651038.534000	169.991400	5.681172	916.566200	101.389420	0.876114	958.113850	236.920280	10.213956	896.106960	24.254542	-4.494026	984.620000	301.374640	13.534769	870.443050	-29.095633	-260.380480	1032.908100	351.263700	-217.640790	822.034360	nan	nan	nan	-66.082060	-395.049500	1006.276600	158.680410	-84.214516	852.742550	152.860540	-163.004820	821.516340	150.841860	-245.905670	810.673060	146.951750	-321.272000	789.603400	nan	nan	nan	nan	nan	nan
132	1749651038.567000	167.441790	5.414084	897.714140	102.302164	0.884935	957.737400	236.676140	10.225117	896.177400	24.299746	-4.331946	983.306650	301.480560	13.554528	870.116530	-28.788904	-259.888470	1033.572600	350.852500	-217.558650	822.298500	nan	nan	nan	-64.572220	-392.956550	1003.041500	158.678680	-84.206210	852.768200	152.872490	-163.008910	821.581960	150.846590	-245.903640	810.690340	146.897400	-321.864250	789.284350	63.619070	-337.458430	825.835650	238.107890	-319.972000	793.134450
133	1749651038.600000	166.108710	4.493132	886.256930	102.908800	0.780717	957.584400	236.586030	10.128066	896.084100	25.994578	-4.905090	983.478840	301.441580	12.825578	871.110560	-28.969595	-261.089740	1034.420100	350.564000	-218.010750	821.773000	nan	nan	nan	-63.476090	-391.402960	1000.224700	158.673540	-84.296420	852.747200	152.898640	-165.331870	821.696460	150.842200	-245.983680	810.635000	146.859320	-322.294470	789.103200	57.948854	-332.236770	809.117200	240.543710	-321.967540	798.206200
134	1749651038.634000	163.056450	5.112723	874.119340	100.579865	0.845864	958.429200	236.577820	10.191858	895.932260	24.882942	-4.242510	985.179250	301.254030	13.843358	872.145700	-28.686376	-259.795550	1033.073000	350.430670	-217.089200	821.786300	nan	nan	nan	-63.840650	-391.145320	999.625600	158.674520	-84.238460	852.780300	152.873460	-164.498000	821.549700	150.847270	-245.929930	810.665800	149.170530	-320.413020	789.502300	61.997194	-334.931100	820.684100	241.289470	-322.658960	800.050200
135	1749651038.667000	161.598200	4.784361	867.625200	98.958090	0.815436	958.848900	236.622510	10.168150	895.839700	24.055881	-4.263118	986.193540	301.973550	13.422668	871.570300	-28.631220	-259.168330	1030.335900	350.783560	-217.843340	821.452140	nan	nan	nan	-64.509870	-391.026850	997.926600	158.672100	-84.263030	852.777600	152.850200	-163.865390	821.408000	150.852300	-245.954300	810.667160	148.381680	-321.160850	789.349100	63.074425	-337.504330	827.001300	240.498810	-323.175280	800.544000
136	1749651038.701000	163.917020	2.761796	883.994640	100.597605	-1.816750	957.448840	236.314770	7.683411	894.074100	26.819384	-6.454945	985.960070	301.875050	12.397930	871.395100	-28.527793	-259.870900	1031.888100	350.754100	-218.229710	820.993540	nan	nan	nan	-65.026560	-391.166030	996.983230	158.690440	-84.329010	852.856700	155.206040	-165.674180	821.386600	153.095140	-245.890440	810.169340	150.034760	-319.778620	789.663100	nan	nan	nan	nan	nan	nan
137	1749651038.734000	164.330830	3.242359	881.040160	101.892225	-0.877693	957.244340	236.477570	8.569270	894.675400	28.259076	-6.001294	991.406100	301.661220	12.496710	870.372950	-28.739610	-260.573540	1027.318400	351.076300	-218.918590	821.663300	nan	nan	nan	-65.842620	-392.377080	995.777550	158.707420	-84.277040	852.973160	154.416220	-164.583520	821.508500	152.342660	-245.881830	810.446500	148.778800	-320.773300	789.487960	59.232257	-333.337370	814.336840	241.933380	-323.501700	801.386830
138	1749651038.768000	163.354400	3.372252	873.479200	102.765540	-0.104398	957.144500	236.630770	9.281740	895.140200	28.622868	-5.959675	986.595200	301.431660	12.483627	871.228040	-28.572915	-261.001530	1026.834600	350.890930	-218.857720	821.863500	nan	nan	nan	-67.305630	-398.219600	1008.635600	158.736350	-84.260434	853.092100	153.801230	-166.042370	821.890500	151.694310	-245.897110	810.646900	150.027680	-321.462270	789.137600	60.925942	-335.856140	820.015430	241.825200	-323.234080	800.756800
139	1749651038.801000	163.288190	3.305793	869.315560	103.246816	0.482619	957.137900	238.644060	7.415265	892.572500	28.521314	-5.714521	989.723270	302.358240	11.907309	870.724700	-28.356057	-259.575550	1026.332500	350.902860	-218.602120	821.596600	nan	nan	nan	-67.174570	-399.458560	1016.745800	158.781190	-84.235124	853.369400	155.663700	-166.926700	821.794330	153.496900	-245.777580	810.346800	150.870790	-321.886540	788.971500	62.495235	-336.147800	820.893350	241.981130	-323.585400	800.951660
140	1749651038.835000	162.804410	3.770024	868.733760	103.448550	0.735506	957.138300	240.373390	8.475989	892.895900	27.050473	-5.130127	993.466200	303.086040	12.162328	871.521300	-28.204052	-259.844200	1028.364300	350.882980	-218.598800	821.819500	nan	nan	nan	-65.305740	-395.938580	1010.188100	158.828870	-84.333680	853.654100	154.545740	-165.308310	821.742200	154.710840	-245.809730	810.195300	151.353730	-322.214500	788.892500	63.965780	-336.411980	820.637170	241.427420	-322.365130	798.464240
141	1749651038.868000	162.926240	4.083201	868.535300	103.505960	0.920892	957.281350	239.057510	9.344235	894.296770	27.633330	-4.661053	984.116400	302.861930	12.322545	872.182700	-27.138270	-262.321700	1029.757600	350.775240	-218.082040	822.057660	nan	nan	nan	-65.089755	-396.469380	1005.267900	158.877970	-84.356850	853.909430	153.700190	-164.077340	821.722900	155.405390	-245.785390	810.138900	151.553180	-322.309140	788.857400	64.393760	-336.979750	823.608000	241.388380	-323.076300	799.580160
142	1749651038.902000	163.067090	3.936514	867.857300	103.460680	1.046106	957.361700	240.380610	9.965807	894.371100	28.130062	-4.854366	983.111600	302.984360	12.167499	872.414050	-27.349947	-260.815800	1029.148500	350.894960	-217.800070	822.312500	nan	nan	nan	-64.555970	-395.511500	1001.520500	161.067890	-84.174280	852.234100	155.474040	-163.221670	821.520860	155.731510	-245.736550	810.174000	151.707080	-320.387240	789.613660	65.893896	-337.105400	825.862050	241.591770	-321.975860	798.008500
143	1749651038.935000	162.883480	4.360422	870.237350	103.404480	1.082525	957.501950	238.887820	10.314643	895.379540	26.913846	-4.194319	988.068800	302.909850	12.382492	871.864440	-27.627297	-259.409370	1029.196900	351.258600	-219.024140	822.033900	nan	nan	nan	-63.711950	-392.865480	1000.952500	160.399500	-84.233925	853.327300	154.372860	-162.797660	821.642400	153.577040	-245.872800	810.835360	151.725980	-319.106580	790.100200	65.584560	-337.458500	826.996400	239.819230	-320.681630	795.341250
144	1749651038.969000	162.357030	4.476741	869.564200	103.322010	0.847429	957.610900	237.793340	10.279804	895.999850	25.817525	-4.087403	991.315800	303.028350	12.521416	871.816300	-27.999418	-257.742940	1031.447300	351.415600	-218.788090	822.438060	nan	nan	nan	-62.521614	-389.523000	999.942400	159.867810	-84.505630	854.425500	153.574200	-162.819620	821.717300	152.050470	-246.146470	811.148400	149.544750	-318.766060	790.965140	64.780320	-336.906080	827.208040	238.296290	-320.295130	793.764230
145	1749651039.002000	162.768770	4.676923	871.666550	103.254050	0.882909	957.676350	239.480470	10.381192	895.412740	25.377627	-4.228696	991.346700	303.417000	13.033569	871.435700	-28.297218	-258.548860	1032.949600	351.590400	-218.349900	822.970500	nan	nan	nan	-62.459360	-388.159500	1000.024900	159.529450	-84.527040	855.426400	153.065760	-162.747500	821.770100	151.127030	-246.164620	811.409350	150.125560	-320.184950	790.084660	64.860280	-337.523460	827.423930	237.743820	-319.547120	792.874340
146	1749651039.036000	162.915680	3.664434	868.627000	103.135230	-1.677692	956.745450	240.289090	7.965878	893.149200	27.536407	-6.301194	990.272640	302.989200	12.881100	872.621360	-27.425233	-256.707220	1038.924300	351.069500	-218.504940	822.475430	nan	nan	nan	-61.606860	-386.768820	1000.865100	159.373690	-84.570140	856.295760	152.892230	-165.103390	822.452100	152.898790	-246.064930	811.070200	150.605100	-321.259980	789.503930	63.922994	-337.002160	826.664450	239.483770	-321.162160	796.690170
147	1749651039.069000	162.697820	4.028484	869.710560	103.137985	-0.953600	957.085500	238.796170	8.616254	894.469860	26.853763	-5.518019	993.975900	302.815170	12.907609	872.330550	-27.383478	-257.700500	1036.148200	350.839470	-218.624860	822.815700	nan	nan	nan	-61.994385	-388.327870	999.092000	159.326610	-84.746145	856.840850	152.801160	-164.569320	822.523360	154.219720	-246.131910	810.844200	150.957870	-322.079540	789.167640	64.886644	-337.557440	826.760650	240.723500	-322.503750	798.968600
148	1749651039.102000	162.836160	4.468411	869.300000	103.131960	-0.143170	957.353950	240.121800	9.347931	894.680100	26.498122	-4.508287	988.793900	303.356470	12.925953	872.055650	-27.594592	-259.203820	1034.537400	351.373970	-219.681260	822.533800	nan	nan	nan	-61.841380	-390.348600	1003.859200	159.347700	-84.706770	857.252360	155.099100	-163.883120	822.146530	155.097700	-246.027050	810.801100	151.204840	-322.401550	789.105500	64.694700	-337.509300	824.528600	241.627230	-323.332200	799.952200
